<svg width="64" height="34" viewBox="0 0 64 34" fill="none" xmlns="http://www.w3.org/2000/svg">
<g clip-path="url(#clip0_1_5)">
<path d="M88.7745 40.8955C82.1794 47.4113 73.4123 51 64.0871 51C54.7617 51 45.9945 47.4113 39.4009 40.8964L6.82088 8.68645C2.45997 4.37813 -4.63433 4.37813 -8.99426 8.68645C-11.1067 10.7728 -12.2696 13.5485 -12.2696 16.5001C-12.2696 19.4516 -11.1067 22.2271 -8.99426 24.3135C-6.81371 26.4683 -3.9506 27.5452 -1.08718 27.5452C1.77624 27.5452 4.64058 26.4672 6.81996 24.3135L9.13214 22.0287L25.9084 38.6146L23.6002 40.8955C17.0063 47.4113 8.23919 51 -1.08718 51C-10.4125 51 -19.1806 47.4113 -25.7745 40.8955C-32.3683 34.3786 -36 25.7151 -36 16.5001C-36 7.28495 -32.3683 -1.3795 -25.7745 -7.89539C-19.1806 -14.4113 -10.4125 -18 -1.08718 -18C8.23827 -18 17.0051 -14.4123 23.599 -7.8964L48.2741 16.498L56.1562 24.2913L56.179 24.3135C60.54 28.622 67.6343 28.622 71.9943 24.3135C74.1065 22.2271 75.2693 19.4516 75.2693 16.5001C75.2693 13.5485 74.1065 10.7728 71.9943 8.68645C67.6343 4.37813 60.54 4.37813 56.179 8.68645L53.8669 10.9714L37.0906 -5.61451L39.3997 -7.89539C45.9936 -14.4113 54.7607 -18 64.0862 -18C73.4113 -18 82.1794 -14.4113 88.7733 -7.89539C95.3681 -1.3795 99 7.28495 99 16.5001C99 25.7151 95.3681 34.3786 88.7745 40.8955Z" fill="#1971FB"/>
</g>
<defs>
<clipPath id="clip0_1_5">
<rect width="64" height="34" fill="white"/>
</clipPath>
</defs>
</svg>
