<svg width="45" height="24" viewBox="0 0 45 24" fill="none" xmlns="http://www.w3.org/2000/svg">
<path d="M41.227 20.3876C39.0866 22.5883 36.2413 23.8004 33.2149 23.8004C30.1884 23.8004 27.3431 22.5883 25.2032 20.3879C25.2032 20.3876 14.6296 9.50894 14.6296 9.50894C13.2143 8.0538 10.9119 8.0538 9.49692 9.50894C8.81134 10.2136 8.43395 11.1511 8.43395 12.148C8.43395 13.1449 8.81134 14.0823 9.49692 14.787C10.2046 15.5148 11.1338 15.8785 12.0631 15.8785C12.9924 15.8785 13.922 15.5144 14.6293 14.787L15.3797 14.0153L20.8243 19.6172L20.0752 20.3876C17.9352 22.5883 15.0899 23.8004 12.0631 23.8004C9.03664 23.8004 6.19101 22.5883 4.05103 20.3876C1.91105 18.1865 0.732422 15.2604 0.732422 12.148C0.732422 9.03558 1.91105 6.10915 4.05103 3.9084C6.19101 1.70765 9.03664 0.495554 12.0631 0.495554C15.0896 0.495554 17.9348 1.70731 20.0748 3.90806L28.0829 12.1473L30.641 14.7795L30.6484 14.787C32.0637 16.2422 34.3661 16.2422 35.7811 14.787C36.4666 14.0823 36.844 13.1449 36.844 12.148C36.844 11.1511 36.4666 10.2136 35.7811 9.50894C34.3661 8.0538 32.0637 8.0538 30.6484 9.50894L29.898 10.2807L24.4534 4.67877L25.2028 3.9084C27.3428 1.70765 30.1881 0.495554 33.2146 0.495554C36.241 0.495554 39.0866 1.70765 41.2266 3.9084C43.3669 6.10915 44.5456 9.03558 44.5456 12.148C44.5456 15.2604 43.3669 18.1865 41.227 20.3876Z" fill="#1971FB"/>
</svg>
